<svg width="13" height="13" viewBox="0 0 13 13" fill="none" xmlns="http://www.w3.org/2000/svg">
<path d="M5.10268 1.30376L5.69732 0.693726C5.94911 0.435425 6.35625 0.435425 6.60536 0.693726L11.8125 6.03286C12.0643 6.29116 12.0643 6.70884 11.8125 6.96439L6.60536 12.3063C6.35357 12.5646 5.94643 12.5646 5.69732 12.3063L5.10268 11.6962C4.84821 11.4352 4.85357 11.0093 5.11339 10.7537L8.34107 7.59915H0.642857C0.286607 7.59915 0 7.30513 0 6.93966V6.06034C0 5.69487 0.286607 5.40085 0.642857 5.40085H8.34107L5.11339 2.24628C4.85089 1.99073 4.84554 1.5648 5.10268 1.30376Z" fill="white"/>
</svg>
